<svg width="213" height="219" viewBox="0 0 213 219" fill="none" xmlns="http://www.w3.org/2000/svg">
<circle cx="106.333" cy="106.333" r="106.333" fill="#EBBF53"/>
<path d="M49.9114 168.723C48.2839 170.35 18.4456 159.5 34.721 182.285C50.9963 205.071 92.7702 212.666 107.961 212.666C123.151 212.666 153.532 208.326 180.115 183.913C206.699 159.5 214.836 125.864 212.666 125.321C210.496 124.779 198.561 121.524 188.796 121.524C179.03 121.524 166.552 129.119 157.872 128.576C149.192 128.034 146.479 125.321 130.746 127.491C115.013 129.661 61.3042 171.435 60.7617 168.723C60.2192 166.01 51.539 167.095 49.9114 168.723Z" fill="#AFA187"/>
<path d="M61.3048 132.917C61.3048 132.917 60.2198 88.4302 61.3048 56.9642C62.3898 25.4982 100.366 24.9558 100.366 56.9642V145.394L104.706 148.649V107.961C104.706 87.3452 125.322 91.6853 125.864 107.961C126.406 124.236 125.864 164.925 125.864 170.893C125.864 176.86 100.366 179.03 100.366 170.893V213.209C100.366 220.262 61.3048 219.176 61.3048 213.209V155.16C61.3048 160.042 23.8712 161.67 23.8712 155.16V97.1104C23.8712 84.09 45.0293 82.4625 45.0293 97.1104V132.917H61.3048Z" fill="#827F3B"/>
<circle cx="161.67" cy="64.0169" r="16.2755" fill="#E2793A"/>
</svg>
